<?xml version="1.0" encoding="UTF-8"?>
<svg xmlns="http://www.w3.org/2000/svg" xmlns:xlink="http://www.w3.org/1999/xlink" width="83px" height="24px" viewBox="0 0 83 24" version="1.1">
<g id="surface1">
<path style=" stroke:none;fill-rule:nonzero;fill:rgb(86.666667%,20.784314%,25.882353%);fill-opacity:1;" d="M 20.460938 13.414062 L 13.492188 15.164062 L 13.492188 8.34375 L 19.535156 6.832031 C 20.085938 6.691406 20.671875 6.808594 21.125 7.15625 C 21.574219 7.503906 21.84375 8.039062 21.851562 8.613281 L 21.851562 11.652344 C 21.832031 12.484375 21.265625 13.207031 20.460938 13.414062 Z M 20.460938 13.414062 "/>
<path style=" stroke:none;fill-rule:nonzero;fill:rgb(86.666667%,20.784314%,25.882353%);fill-opacity:1;" d="M 12.105469 22.339844 L 8.015625 23.449219 C 7.464844 23.59375 6.878906 23.472656 6.425781 23.125 C 5.976562 22.777344 5.707031 22.242188 5.703125 21.671875 L 5.703125 18.632812 C 5.703125 17.796875 6.269531 17.074219 7.074219 16.867188 L 13.476562 15.148438 L 13.476562 20.558594 C 13.488281 21.402344 12.917969 22.140625 12.105469 22.339844 Z M 12.105469 22.339844 "/>
<path style=" stroke:none;fill-rule:nonzero;fill:rgb(86.666667%,20.784314%,25.882353%);fill-opacity:1;" d="M 13.492188 8.359375 L 2.3125 11.265625 C 1.765625 11.417969 1.175781 11.304688 0.722656 10.957031 C 0.269531 10.613281 0.00390625 10.074219 0 9.5 L 0 6.464844 C 0.00390625 5.625 0.578125 4.898438 1.386719 4.699219 L 11.191406 2.132812 C 11.742188 1.992188 12.328125 2.109375 12.78125 2.457031 C 13.230469 2.804688 13.5 3.34375 13.507812 3.914062 Z M 13.492188 8.359375 "/>
<path style=" stroke:none;fill-rule:nonzero;fill:rgb(86.666667%,20.784314%,25.882353%);fill-opacity:1;" d="M 27.699219 23.0625 C 27.667969 20.898438 27.921875 19.964844 28.640625 18.632812 C 30.132812 19.3125 32.117188 19.953125 33.984375 19.953125 C 36.460938 19.953125 37.730469 19.179688 37.730469 17.789062 C 37.730469 16.75 37.175781 16.039062 34.207031 14.808594 C 29.941406 13 27.863281 11.738281 27.863281 8.375 C 27.863281 4.59375 31.222656 2.03125 36.265625 2.03125 C 38.214844 2.054688 40.144531 2.371094 42 2.964844 C 42.03125 5.070312 41.773438 6.105469 41.027344 7.101562 C 39.527344 6.359375 37.878906 5.960938 36.207031 5.929688 C 34.058594 5.929688 32.953125 6.746094 32.953125 7.960938 C 32.953125 9.132812 33.773438 9.769531 36.042969 10.644531 C 40.804688 12.453125 42.847656 14.066406 42.847656 17.238281 C 42.847656 21.375 39.730469 23.996094 33.835938 23.996094 C 31.75 24.050781 29.675781 23.734375 27.699219 23.0625 Z M 27.699219 23.0625 "/>
<path style=" stroke:none;fill-rule:nonzero;fill:rgb(86.666667%,20.784314%,25.882353%);fill-opacity:1;" d="M 60.160156 7.410156 L 60.128906 21.804688 C 58.085938 23.167969 54.757812 23.878906 52.054688 23.878906 C 48.308594 23.878906 45.144531 22.425781 45.144531 17.964844 L 45.144531 8.179688 C 46.550781 7.574219 48.144531 7.410156 50.027344 7.410156 L 50.027344 17.207031 C 50.027344 18.925781 51.160156 19.800781 53.144531 19.800781 C 53.851562 19.796875 54.550781 19.710938 55.234375 19.546875 L 55.234375 8.179688 C 56.609375 7.574219 58.308594 7.410156 60.160156 7.410156 Z M 60.160156 7.410156 "/>
<path style=" stroke:none;fill-rule:nonzero;fill:rgb(86.666667%,20.784314%,25.882353%);fill-opacity:1;" d="M 69.964844 6.757812 L 69.964844 7.441406 L 74.847656 7.441406 C 74.847656 8.449219 74.160156 10.421875 73.28125 11.292969 L 69.949219 11.292969 L 69.949219 23.640625 L 65.042969 23.640625 L 65.042969 11.28125 L 62.5625 11.28125 C 62.5625 9.855469 63.742188 7.75 65.042969 7.113281 L 65.042969 6.269531 C 65.042969 2.710938 66.964844 0.445312 71.488281 0.445312 C 73.015625 0.457031 74.535156 0.59375 76.039062 0.859375 C 76.039062 2.769531 75.683594 3.898438 74.964844 4.710938 C 74.074219 4.5625 73.167969 4.480469 72.265625 4.457031 C 70.578125 4.460938 69.964844 5.527344 69.964844 6.757812 Z M 69.964844 6.757812 "/>
<path style=" stroke:none;fill-rule:nonzero;fill:rgb(86.666667%,20.784314%,25.882353%);fill-opacity:1;" d="M 77.847656 2.492188 C 77.871094 1.109375 78.992188 0.00390625 80.367188 0.00390625 C 81.742188 0.00390625 82.863281 1.109375 82.890625 2.492188 C 82.855469 3.875 81.730469 4.976562 80.351562 4.980469 C 79.691406 4.984375 79.054688 4.726562 78.585938 4.257812 C 78.113281 3.789062 77.847656 3.15625 77.847656 2.492188 Z M 77.90625 7.605469 C 78.691406 7.285156 79.535156 7.128906 80.382812 7.144531 C 81.222656 7.128906 82.054688 7.285156 82.832031 7.605469 L 82.832031 23.640625 L 77.90625 23.640625 Z M 77.90625 7.605469 "/>
</g>
</svg>
